<svg xmlns="http://www.w3.org/2000/svg" width="55" height="70" viewBox="0 0 55 70"><g><g><g><path fill="#3d4e74" d="M6.21 65.2a1.056 1.056 0 0 1-1.018-.605 1.05 1.05 0 0 1 .187-1.168 1.059 1.059 0 0 1 1.158-.257c.402.16.666.547.666.978a1.024 1.024 0 0 1-.992 1.051zm.006-3.81a2.763 2.763 0 1 0 2.701 2.763 2.735 2.735 0 0 0-2.701-2.762z"/></g><g><path fill="#3d4e74" d="M1.707 67.714v-7.37c0-.314.255-.568.57-.568h23.64c.314 0 .569.254.569.568v7.37a.569.569 0 0 1-.57.569H2.277a.568.568 0 0 1-.569-.569zm4.065-32.526a4.048 4.048 0 0 1 1.133-2.818L19.16 22.61l.042 9.138-7.938 6.285a.854.854 0 1 0 1.06 1.339l11.238-8.9.335.334a2.845 2.845 0 0 1 0 4.02l-5.226 5.226a.854.854 0 0 0-.249.555l-.066 1.14-.001.049c.005.852.2 1.692.569 2.46a5.84 5.84 0 0 1-.426 5.69.855.855 0 0 0-.143.474v2.464a.854.854 0 0 0 1.707 0v-2.216A7.565 7.565 0 0 0 21 45.103a5.604 5.604 0 0 0 3.892 1.555h.028l3.29-.016v3.778a4.078 4.078 0 0 1-4.073 4.074.854.854 0 0 0-.854.853v2.721H5.773zM24.702 1.79l16.18-.078.03 6.483a5.649 5.649 0 0 0 5.643 5.617h.028l6.48-.031.13 27.098a3.936 3.936 0 0 1-3.916 3.955l-24.367.117h-.019a3.934 3.934 0 0 1-3.935-3.913v-.854l4.148-4.149a4.555 4.555 0 0 0 0-6.433l-.87-.871a.852.852 0 0 0-1.134-.066l-2.195 1.738-.118-24.657a3.91 3.91 0 0 1 1.138-2.79 3.908 3.908 0 0 1 2.777-1.166zM51.88 12.068l-5.297.025h-.02a3.939 3.939 0 0 1-3.935-3.913L42.6 2.908zM28.193 67.724v-7.38a2.279 2.279 0 0 0-2.276-2.276h-.927v-1.93a5.79 5.79 0 0 0 4.928-5.718v-3.786l19.376-.093a5.65 5.65 0 0 0 5.616-5.672l-.135-27.976a.85.85 0 0 0-.253-.603L42.362.272l-.009-.008A.85.85 0 0 0 41.738 0h-.005a.89.89 0 0 0-.109.008L41.59.005a1.065 1.065 0 0 0-.085-.004l-16.81.08a5.644 5.644 0 0 0-5.617 5.672l.072 14.684L5.8 31.068a.835.835 0 0 0-.077.07 5.747 5.747 0 0 0-1.658 4.05v22.88H2.276A2.279 2.279 0 0 0 0 60.345v7.379A2.28 2.28 0 0 0 2.276 70h23.64a2.28 2.28 0 0 0 2.277-2.276z"/></g><g><path fill="#4977e0" d="M47.803 33.992a.853.853 0 0 1-.852.854h-2.127a.853.853 0 0 1 0-1.707h2.127c.471 0 .852.382.852.853zm-20.203 0c0-.471.382-.853.854-.853h13.328a.853.853 0 1 1 0 1.707H28.454a.854.854 0 0 1-.854-.854zm20.203-5.737a.851.851 0 0 1-.853.848H33.84a.851.851 0 0 1-.853-.848c0-.47.382-.849.853-.849h13.11a.85.85 0 0 1 .853.849zm-20.203 0a.85.85 0 0 1 .852-.849h2.402c.47 0 .852.38.852.849a.85.85 0 0 1-.852.848h-2.402a.85.85 0 0 1-.852-.848zm20.203 11.47a.853.853 0 0 1-.853.854H34.86a.854.854 0 0 1 0-1.707H46.95c.472 0 .853.382.853.853zm-15.132 0a.853.853 0 0 1-.852.854h-3.367a.853.853 0 0 1 0-1.707h3.367c.47 0 .852.382.852.853zm15.122-22.931a.853.853 0 0 1-.853.853H35.263a.853.853 0 0 1 0-1.707H46.94c.472 0 .853.382.853.854zm.01 5.732a.853.853 0 0 1-.852.854h-3.147a.853.853 0 0 1 0-1.707h3.147c.471 0 .852.382.852.853zm-19.35.854a.853.853 0 1 1 0-1.707h12.364a.854.854 0 0 1 0 1.707zm-.853-6.586c0-.472.382-.854.853-.854h3.824a.853.853 0 0 1 0 1.707h-3.824a.853.853 0 0 1-.853-.853z"/></g></g></g></svg>