<svg xmlns="http://www.w3.org/2000/svg" width="70" height="69" viewBox="0 0 70 69"><g><g><g><path fill="#3d4e74" d="M35.825 67.129v-7.532H65.64l2.346 7.532zM6.478 54.112h16.757L22.5 67.12H2.047zm42.688-4.796l-1.28-8h12.046l2.495 8zm12.209-9.107a.854.854 0 0 0-.815-.599H44.58v1.707h1.578l1.437 8.981a.854.854 0 0 0 .843.719H62.96l2.147 6.879H34.972a.854.854 0 0 0-.854.853v8.369H24.22L25 53.312a.854.854 0 0 0-.852-.902H7.063l3.783-11.093h15.369V39.61h-15.98a.854.854 0 0 0-.808.578L.046 67.696a.854.854 0 0 0 .808 1.13h68.292a.854.854 0 0 0 .815-1.109z"/></g><g><path fill="#4977e0" d="M36.37 21.733c-.743.31-2.048.31-2.792 0l-7.053-2.936 8.45-3.519 8.45 3.519zm4.117 2.712c-1.983.156-3.762 1.786-4.96 2.883-.207.19-.446.409-.627.56-.181-.15-.423-.371-.632-.562-1.187-1.081-2.943-2.682-4.935-2.874v-2.637l3.592 1.494a6.05 6.05 0 0 0 4.109 0l3.453-1.437zm-5.84-10.88l-10.671 4.443a.854.854 0 0 0 0 1.577l3.65 1.52v4.182c0 .472.382.854.853.854h.462c1.49 0 3.104 1.472 4.172 2.447.8.73 1.24 1.132 1.786 1.132.541 0 .954-.38 1.777-1.133 1.062-.974 2.667-2.446 4.105-2.446h.55a.854.854 0 0 0 .853-.854v-4.125l.705-.293v2.378a.854.854 0 1 0 1.708 0v-3.089l1.376-.573a.854.854 0 0 0 0-1.576l-10.67-4.443a.854.854 0 0 0-.657 0z"/></g><g><path fill="#4977e0" d="M49.624 31.988L35.203 51.263 20.786 31.996c-2.798-3.836-4.18-8.323-3.892-12.636A19.261 19.261 0 0 1 22.44 7.02a18.007 18.007 0 0 1 25.522 0 19.263 19.263 0 0 1 5.548 12.342c.299 4.403-1.081 8.887-3.887 12.626zm-.45-26.171a19.712 19.712 0 0 0-27.943 0 20.974 20.974 0 0 0-6.04 13.434c-.314 4.712 1.183 9.597 4.223 13.766L34.519 53.21a.854.854 0 0 0 1.367 0L50.99 33.018c3.05-4.067 4.55-8.956 4.223-13.766a20.975 20.975 0 0 0-6.04-13.435z"/></g><g><path fill="#4977e0" d="M35.003 33.568a13.116 13.116 0 1 1 13.116-13.116c-.009 7.24-5.876 13.108-13.116 13.116zm0-27.938c-8.187 0-14.823 6.636-14.823 14.823 0 8.186 6.636 14.822 14.823 14.822 8.186 0 14.822-6.636 14.822-14.822-.009-8.183-6.64-14.814-14.822-14.823z"/></g></g></g></svg>