<svg xmlns="http://www.w3.org/2000/svg" width="70" height="63" viewBox="0 0 70 63"><g><g><path fill="#fff" d="M67.129 52.416a.95.95 0 0 1-.95.95c-2.446 0-3.713-.95-4.83-1.787-1.006-.755-1.875-1.407-3.688-1.407-1.813 0-2.682.652-3.69 1.407-1.116.837-2.382 1.787-4.828 1.787s-3.712-.95-4.83-1.788c-1.006-.754-1.875-1.406-3.688-1.406-1.812 0-2.681.652-3.688 1.407-1.117.837-2.383 1.787-4.829 1.787-2.446 0-3.712-.95-4.829-1.788-1.006-.754-1.875-1.406-3.688-1.406-1.812 0-2.682.652-3.688 1.407-1.117.837-2.383 1.787-4.83 1.787-2.445 0-3.711-.95-4.828-1.788-1.006-.754-1.876-1.406-3.688-1.406a.95.95 0 1 1 0-1.9c2.446 0 3.712.949 4.828 1.786 1.007.755 1.876 1.407 3.689 1.407 1.813 0 2.682-.652 3.688-1.407 1.117-.837 2.383-1.787 4.83-1.787 2.445 0 3.711.95 4.828 1.787 1.006.755 1.876 1.407 3.688 1.407 1.813 0 2.682-.652 3.688-1.407 1.117-.837 2.383-1.787 4.83-1.787 2.446 0 3.711.95 4.828 1.787 1.007.755 1.876 1.407 3.689 1.407 1.813 0 2.682-.652 3.689-1.407 1.116-.837 2.383-1.787 4.829-1.787 2.446 0 3.712.95 4.829 1.787 1.007.755 1.876 1.407 3.689 1.407a.95.95 0 0 1 .95.95zm-.95 8.365a.95.95 0 1 1 0 1.9c-2.446 0-3.713-.949-4.83-1.786-1.006-.755-1.875-1.407-3.688-1.407-1.813 0-2.682.652-3.69 1.407-1.116.836-2.382 1.787-4.828 1.787s-3.712-.95-4.829-1.787c-1.007-.755-1.876-1.407-3.689-1.407-1.812 0-2.681.652-3.688 1.407-1.117.836-2.383 1.787-4.829 1.787-2.446 0-3.712-.95-4.829-1.787-1.006-.755-1.875-1.407-3.688-1.407-1.812 0-2.682.652-3.688 1.407-1.117.836-2.383 1.787-4.83 1.787-2.445 0-3.711-.95-4.828-1.787-1.006-.755-1.876-1.407-3.688-1.407a.95.95 0 1 1 0-1.9c2.446 0 3.712.949 4.828 1.786 1.007.755 1.876 1.407 3.689 1.407 1.813 0 2.682-.652 3.688-1.407 1.117-.837 2.383-1.787 4.83-1.787 2.445 0 3.71.95 4.828 1.787 1.006.755 1.876 1.407 3.688 1.407 1.813 0 2.682-.652 3.689-1.407 1.116-.837 2.382-1.787 4.828-1.787 2.447 0 3.712.95 4.83 1.787 1.006.755 1.875 1.407 3.688 1.407 1.813 0 2.682-.652 3.689-1.407 1.117-.837 2.383-1.787 4.829-1.787 2.446 0 3.712.95 4.829 1.787 1.007.755 1.876 1.407 3.689 1.407zM49.48 10.941a.95.95 0 0 1 1.646.951l-3.06 5.302a.95.95 0 0 1-1.647-.95zm18.897 6.405a.95.95 0 1 1 1.06 1.578L57.8 26.736a.95.95 0 1 1-1.06-1.578l11.637-7.812zm-.754 20.845a.95.95 0 0 1-.95.95H60.55a.95.95 0 1 1 0-1.9h6.122a.95.95 0 0 1 .95.95zm-57.227 0a.95.95 0 0 1-.95.95H3.324a.95.95 0 1 1 0-1.9h6.122a.95.95 0 0 1 .95.95zm2.78-13.082a.95.95 0 0 1-.897 1.676L.642 20.556a.95.95 0 0 1 .897-1.675l11.636 6.228zm6.276-13.901l3.06 5.301a.95.95 0 1 1-1.645.95l-3.061-5.301a.95.95 0 1 1 1.646-.95zM34.999.03a.95.95 0 0 1 .95.95v12.457a.95.95 0 1 1-1.9 0V.98a.95.95 0 0 1 .95-.95zM55.91 38.19a.95.95 0 0 1-.95.951H15.036a.95.95 0 0 1-.95-.95c0-11.532 9.381-20.913 20.913-20.913 11.531 0 20.913 9.381 20.912 20.913zm-1.924-.95c-.51-10.115-8.86-18.056-18.988-18.056-10.13 0-18.48 7.94-18.99 18.057z"/></g></g></svg>