<svg xmlns="http://www.w3.org/2000/svg" width="16" height="16" viewBox="0 0 16 16"><defs><linearGradient id="tznna" x1="7.73" x2="7.73" y1="15.43" y2=".09" gradientUnits="userSpaceOnUse"><stop offset="0" stop-color="#f9f9f9"/><stop offset="1" stop-color="#fff"/></linearGradient></defs><g><g opacity=".73"><path fill="url(#tznna)" d="M2.562 11.29l-.15-.239a6.302 6.302 0 0 1-.966-3.361 6.325 6.325 0 0 1 6.317-6.316c1.687 0 3.272.658 4.465 1.852a6.28 6.28 0 0 1 1.848 4.469c-.002 3.483-2.835 6.317-6.315 6.317h-.003a6.304 6.304 0 0 1-3.213-.881l-.231-.137-2.39.627zM.164 7.69c0 1.339.35 2.646 1.015 3.799L.1 15.427l4.03-1.057c1.11.606 2.36.925 3.633.925h.003c4.19 0 7.6-3.41 7.602-7.6.001-2.03-.79-3.94-2.224-5.376A7.555 7.555 0 0 0 7.766.09C3.576.09.166 3.5.164 7.69z"/></g></g></svg>