<svg xmlns="http://www.w3.org/2000/svg" width="70" height="65" viewBox="0 0 70 65"><g><g><path fill="#fff" d="M55.432 39.114a2.698 2.698 0 0 0 0 5.395 4.402 4.402 0 0 1 .852 8.72v1.344a.852.852 0 0 1-1.704 0v-1.344a4.409 4.409 0 0 1-3.55-4.318.852.852 0 0 1 1.704 0 2.7 2.7 0 0 0 2.672 2.697l.026-.002.025.002a2.697 2.697 0 0 0-.025-5.395 4.401 4.401 0 0 1-.852-8.72v-1.181a.852.852 0 1 1 1.704 0v1.182a4.409 4.409 0 0 1 3.55 4.318.852.852 0 1 1-1.704 0 2.701 2.701 0 0 0-2.698-2.698zm0-8.104c7.967.009 14.423 6.465 14.432 14.432 0 7.97-6.461 14.431-14.432 14.431-7.97 0-14.432-6.46-14.432-14.431C41 37.47 47.46 31.01 55.432 31.01zm0 27.16c7.026-.008 12.72-5.702 12.728-12.728 0-7.03-5.699-12.729-12.728-12.729-7.03 0-12.729 5.7-12.729 12.729 0 7.03 5.7 12.728 12.729 12.728zM52.8 24.356c.47 0 .852.381.852.852v3.786a.851.851 0 1 1-1.704 0v-3.786c0-.47.381-.852.852-.852zm5.333 3.843v.683a.852.852 0 0 1-1.704 0v-.683a.852.852 0 1 1 1.704 0zm-8.962-5.418a.852.852 0 0 1-1.704 0v-.054a.852.852 0 1 1 1.704 0zm0 2.92v4.758a.852.852 0 0 1-1.704 0v-4.758a.852.852 0 1 1 1.704 0zM33.555 44.685v.427a.852.852 0 0 1-1.704 0v-.427a.852.852 0 1 1 1.704 0zm0-3.103a.852.852 0 0 1-1.704 0V28.037a.852.852 0 1 1 1.704 0zm0-16.42a.852.852 0 0 1-1.704 0v-.234a.852.852 0 1 1 1.704 0zm3.628 10.218c.47 0 .852.381.852.852v1.78a.852.852 0 1 1-1.704 0v-1.78c0-.471.382-.852.852-.852zM23.74 33.768c.47 0 .852.382.852.852v3.255a.852.852 0 1 1-1.704 0V34.62c0-.47.382-.852.852-.852zm5.333-1.654a.852.852 0 1 1-1.704 0V21.968a.852.852 0 0 1 1.704 0zm0 3.072a.851.851 0 1 1-1.704 0v-.278a.852.852 0 1 1 1.704 0zm-.852 1.975c.471 0 .852.381.852.852v6.961a.851.851 0 1 1-1.704 0v-6.961c0-.47.382-.852.852-.852zm-14.763 4.462a.852.852 0 1 1-1.704 0v-1.035a.852.852 0 1 1 1.704 0zm0 10.988v11.396a.852.852 0 1 1-1.704 0V52.611a.852.852 0 0 1 1.704 0zm0-3.109a.852.852 0 1 1-1.704 0v-5.446a.852.852 0 0 1 1.704 0zm4.481 5.446a.852.852 0 0 1-1.704 0v-4.111a.851.851 0 1 1 1.704 0zm0 3.02v4.62a.852.852 0 0 1-1.704 0v-4.62a.851.851 0 1 1 1.704 0zM4.496 56.032a.852.852 0 0 1-1.704 0v-3.38a.851.851 0 1 1 1.704 0zm0 3.162v3.254a.852.852 0 1 1-1.704 0v-3.254a.851.851 0 1 1 1.704 0zm4.48-15.848a.852.852 0 1 1-1.703 0V42.27a.852.852 0 0 1 1.704 0zm0 13.341a.852.852 0 0 1-1.703 0V46.542a.852.852 0 1 1 1.704 0zm0 3.072v4.109a.852.852 0 1 1-1.703 0V59.76a.852.852 0 0 1 1.704 0zM40.555 17.94l9.512-6.912a.852.852 0 0 1 1.003 0l5.36 3.911.003-2.396c0-.47.382-.851.852-.851h.001c.47 0 .852.382.851.853l-.004 3.636 2.437 1.778a.853.853 0 1 1-1.005 1.376l-1.436-1.048-.003 2.663v4.672a.852.852 0 0 1-1.704 0v-4.673l.005-3.904-5.86-4.275-5.874 4.268-.006 12.581a.852.852 0 1 1-1.704 0l.006-11.342-1.433 1.041a.853.853 0 0 1-1-1.378zm4.13 14.43L44.682 34c0 .47-.382.85-.852.85h-.001a.852.852 0 0 1-.851-.853l.002-1.631c0-.47.382-.85.852-.85h.001c.47 0 .852.381.851.852zM21.456 8.452a.851.851 0 1 1-1.002-1.379L29.967.163a.852.852 0 0 1 1.003 0l5.363 3.913V1.678a.851.851 0 1 1 1.704 0V5.32l2.433 1.775a.852.852 0 0 1-1.005 1.376l-1.428-1.042-.002 25.785a.852.852 0 1 1-1.704 0l.002-27.028-5.866-4.28-5.873 4.268-.001 25.286a.852.852 0 0 1-1.704 0l.002-24.048-1.434 1.042zM.507 21.38a.852.852 0 0 1-.15-1.472l9.513-6.912a.851.851 0 0 1 1.003 0l5.363 3.913v-2.398a.852.852 0 1 1 1.704 0v3.64l2.432 1.776a.852.852 0 0 1-1.004 1.376l-1.428-1.042v27.518a.852.852 0 0 1-1.704 0V19.02l-5.866-4.28-5.874 4.268v31.237a.852.852 0 1 1-1.703 0v-30l-1.435 1.042a.852.852 0 0 1-.85.094z"/></g></g></svg>