<svg xmlns="http://www.w3.org/2000/svg" width="64" height="60" viewBox="0 0 64 60"><g><g><g><g><path fill="#fff" d="M54.69 4.437H32.63V1.548h22.06zm5.924-2.06h-4.359V.774A.779.779 0 0 0 55.473 0H31.847a.779.779 0 0 0-.783.774v1.603h-5.663c-1.872.002-3.389 1.503-3.391 3.354V12c0 .427.35.774.783.774a.779.779 0 0 0 .782-.774V5.73a1.819 1.819 0 0 1 1.826-1.806h5.663v1.287c0 .428.35.774.783.774h23.626a.778.778 0 0 0 .782-.774V3.925h4.359A1.818 1.818 0 0 1 62.44 5.73v42.817c0 .997-.818 1.806-1.826 1.806H30.698a.779.779 0 0 0-.782.775c0 .427.35.774.782.774h29.916c1.872-.002 3.39-1.503 3.39-3.355V5.73c-.001-1.852-1.518-3.352-3.39-3.354z"/></g><g><path fill="#fff" d="M56.774 25.43h-5.721a.779.779 0 0 0-.783.774c0 .428.35.774.783.774h5.721a.778.778 0 0 0 .783-.774.779.779 0 0 0-.783-.774z"/></g><g><path fill="#fff" d="M44.98 26.204c0 .428.35.774.783.774h1.919a.778.778 0 0 0 .783-.774.779.779 0 0 0-.783-.774h-1.92a.778.778 0 0 0-.782.774z"/></g><g><path fill="#fff" d="M42.801 25.43H31.783a.779.779 0 0 0-.783.774c0 .428.35.774.783.774H42.8a.778.778 0 0 0 .783-.774.779.779 0 0 0-.783-.774z"/></g><g><path fill="#fff" d="M37.53 34.574c0 .428.35.774.783.774H56.77a.779.779 0 0 0 .783-.774.779.779 0 0 0-.783-.774H38.313a.779.779 0 0 0-.783.774z"/></g><g><path fill="#fff" d="M34.323 33.8a.779.779 0 0 0-.783.774c0 .428.35.774.783.774h.62a.778.778 0 0 0 .782-.774.778.778 0 0 0-.783-.774z"/></g><g><path fill="#fff" d="M56.773 41.54h-.66a.778.778 0 0 0-.783.774c0 .428.35.774.783.774h.66a.779.779 0 0 0 .783-.774.778.778 0 0 0-.783-.774z"/></g><g><path fill="#fff" d="M37.373 41.54a.778.778 0 0 0-.783.774c0 .428.35.774.783.774h15.365a.779.779 0 0 0 .783-.774.778.778 0 0 0-.783-.774z"/></g><g><path fill="#fff" d="M29.233 43.088h4.69a.779.779 0 0 0 .782-.774.778.778 0 0 0-.782-.774h-4.69a.778.778 0 0 0-.783.774c0 .428.35.774.783.774z"/></g><g><path fill="#fff" d="M40.338 18.831H30.015v-4.903h10.323zm.783-6.451H29.233a.779.779 0 0 0-.783.774v6.452c0 .428.35.774.783.774H41.12a.778.778 0 0 0 .783-.774v-6.452a.779.779 0 0 0-.783-.774z"/></g><g><path fill="#fff" d="M56.768 18.83h-.505a.778.778 0 0 0-.783.774c0 .428.35.774.783.774h.505a.778.778 0 0 0 .782-.774.779.779 0 0 0-.782-.774z"/></g><g><path fill="#fff" d="M47.353 20.378H52.9a.778.778 0 0 0 .782-.774.778.778 0 0 0-.782-.774h-5.547a.779.779 0 0 0-.783.774c0 .428.35.774.783.774z"/></g><g><path fill="#fff" d="M56.774 12.38h-5.591a.779.779 0 0 0-.783.774c0 .428.35.774.783.774h5.591a.778.778 0 0 0 .783-.774.779.779 0 0 0-.783-.774z"/></g><g><path fill="#fff" d="M47.353 13.928h.46a.778.778 0 0 0 .783-.774.779.779 0 0 0-.782-.774h-.461a.779.779 0 0 0-.783.774c0 .428.35.774.783.774z"/></g></g><g><path fill="#3d4e74" d="M21.558 44.848c.075-.016.15-.032.225-.051v.127zm8.196 7.672v5.92h-4.073v-5.92a5.014 5.014 0 0 1 2.037-3.598 5.014 5.014 0 0 1 2.036 3.599zm-27.452 0a5.01 5.01 0 0 1 2.042-3.598 5.01 5.01 0 0 1 2.042 3.598v5.92H2.302zm7.471-9.567a4.246 4.246 0 0 1-2.213-3.215.782.782 0 0 0-.32-.538.758.758 0 0 0-.608-.123 4.187 4.187 0 0 1-1.756.015c-1.944-.407-3.34-2.146-3.339-4.162a4.29 4.29 0 0 1 2.006-3.623c.35.195.732.327 1.127.39.404 4.27 3.103 7.963 7.013 9.591v2.145a4.117 4.117 0 0 1-1.91-.48zM3.331 27.748a1.262 1.262 0 0 1 1.264-.968c.087 0 .173.008.258.024a.754.754 0 0 0 .143.013h.093c.03 0 .06-.002.088-.006l.03-.005a.826.826 0 0 0 .072-.015l.024-.007a.692.692 0 0 0 .09-.033l.014-.007a.826.826 0 0 0 .072-.04l.025-.015a.692.692 0 0 0 .062-.047l.017-.012a.85.85 0 0 0 .06-.06l.008-.009.018-.02a.803.803 0 0 0 .046-.063l.015-.022a.729.729 0 0 0 .049-.091l.001-.002A4.367 4.367 0 0 1 9.75 23.79a9.775 9.775 0 0 0 7.738-3.793l1.266-1.564c.023 1.574.35 3.589 1.586 5.268 1.381 1.878 3.58 2.921 6.536 3.1h.024l.023.002h.076a.849.849 0 0 0 .143-.013c.598-.115 1.336.182 1.523.958.141.585.01 1.204-.357 1.678a1.923 1.923 0 0 1-1.52.752h-.183a.774.774 0 0 0-.768.755c-.176 5.385-4.527 9.66-9.836 9.66-5.308 0-9.66-4.275-9.836-9.66a.774.774 0 0 0-.768-.755h-.189a1.923 1.923 0 0 1-1.52-.752 1.99 1.99 0 0 1-.357-1.678zM8.36 13.932c3.021-3.284 7.753-4.282 11.814-2.492s6.572 5.982 6.267 10.464l-.222 3.268c-2.093-.263-3.651-1.066-4.635-2.398-1.953-2.644-1.098-6.576-1.09-6.614a.783.783 0 0 0-.408-.877.762.762 0 0 0-.935.206l-2.85 3.523-.008.01A8.26 8.26 0 0 1 9.75 22.23a5.882 5.882 0 0 0-4.047 1.624l-.133-1.95a10.6 10.6 0 0 1 2.789-7.972zM16 42.152c.933 0 1.86-.114 2.765-.343v2.895l-2.768 3.787-2.767-3.787v-2.897c.906.23 1.837.346 2.77.345zM26.17 48.2a6.598 6.598 0 0 0-2.025 4.222.7.7 0 0 0-.002.065v5.953H7.913v-5.953a.955.955 0 0 0-.003-.065A6.603 6.603 0 0 0 5.886 48.2l6.298-2.307 3.044 4.165v3.509c0 .43.345.78.769.78.424 0 .769-.35.769-.78v-3.509l3.057-4.183zm4.293-13.265c.002 2.016-1.394 3.755-3.338 4.16a4.19 4.19 0 0 1-1.756-.015.758.758 0 0 0-.608.123.781.781 0 0 0-.32.539 4.248 4.248 0 0 1-2.119 3.16.767.767 0 0 0-.229.12c-.304.15-.625.261-.957.329a4.176 4.176 0 0 1-.833.085V41.3c3.917-1.629 6.622-5.327 7.026-9.604a3.397 3.397 0 0 0 1.04-.345c1.434 1.066 2.094 2.567 2.094 3.584zm-3.03 5.688C30.093 40.07 32 37.692 32 34.935c0-1.83-1.13-3.521-2.434-4.612a3.56 3.56 0 0 0 .592-2.946 2.836 2.836 0 0 0-2.411-2.15l.217-3.216a12.285 12.285 0 0 0-3.197-9.144A11.912 11.912 0 0 0 16.001 9a11.91 11.91 0 0 0-8.766 3.867 12.285 12.285 0 0 0-3.197 9.144l.218 3.222a2.783 2.783 0 0 0-2.419 2.144 3.563 3.563 0 0 0 .526 2.853 5.844 5.844 0 0 0-2.348 5.128 5.816 5.816 0 0 0 3.06 4.727 5.621 5.621 0 0 0 3.121.64c.551 2.081 2.199 3.677 4.273 4.138L4.38 47.092a.934.934 0 0 0-.083.036 6.566 6.566 0 0 0-3.53 5.294.924.924 0 0 0-.003.065v6.733c0 .43.344.78.769.78h28.989c.424 0 .768-.35.768-.78v-6.733a.955.955 0 0 0-.002-.065 6.566 6.566 0 0 0-3.53-5.294.85.85 0 0 0-.083-.036l-4.356-1.595v-1.38a5.805 5.805 0 0 0 2.49-3.395 5.684 5.684 0 0 0 1.623-.099z"/></g></g></g></svg>