<svg xmlns="http://www.w3.org/2000/svg" width="57" height="70" viewBox="0 0 57 70"><g><g><g><g><path fill="#fff" d="M5.774 25.607h.334a.854.854 0 1 0 0-1.707h-.334a.854.854 0 0 0 0 1.707z"/></g><g><path fill="#fff" d="M11.956 23.9H9.434a.854.854 0 0 0 0 1.707h2.522a.854.854 0 0 0 0-1.707z"/></g><g><path fill="#fff" d="M33.425 23.9H15.344a.854.854 0 0 0 0 1.707h18.081a.854.854 0 0 0 0-1.707z"/></g><g><path fill="#fff" d="M5.774 18.497h.334a.854.854 0 1 0 0-1.707h-.334a.854.854 0 0 0 0 1.707z"/></g><g><path fill="#fff" d="M11.956 16.79H9.434a.854.854 0 0 0 0 1.707h2.522a.854.854 0 0 0 0-1.707z"/></g><g><path fill="#fff" d="M33.425 16.79H15.344a.854.854 0 0 0 0 1.707h18.081a.854.854 0 0 0 0-1.707z"/></g><g><path fill="#fff" d="M5.774 11.377h.334a.854.854 0 1 0 0-1.707h-.334a.854.854 0 0 0 0 1.707z"/></g><g><path fill="#fff" d="M11.956 9.67H9.434a.854.854 0 0 0 0 1.707h2.522a.854.854 0 0 0 0-1.707z"/></g><g><path fill="#fff" d="M33.425 9.67H15.344a.854.854 0 0 0 0 1.707h18.081a.854.854 0 0 0 0-1.707z"/></g><g><path fill="#fff" d="M5.774 32.727h.334a.854.854 0 1 0 0-1.707h-.334a.854.854 0 0 0 0 1.707z"/></g><g><path fill="#fff" d="M12.81 31.874a.854.854 0 0 0-.854-.854H9.434a.854.854 0 0 0 0 1.707h2.522a.854.854 0 0 0 .854-.853z"/></g><g><path fill="#fff" d="M27.165 31.874a.854.854 0 0 0-.854-.854H15.344a.854.854 0 0 0 0 1.707H26.31a.854.854 0 0 0 .854-.853z"/></g><g><path fill="#fff" d="M7.888 40.472a1.27 1.27 0 0 1 1.268 1.268.854.854 0 1 0 1.707 0 2.979 2.979 0 0 0-2.12-2.848v-.438a.854.854 0 1 0-1.708 0v.438a2.973 2.973 0 0 0 .853 5.823 1.268 1.268 0 0 1 .015 2.534h-.03a1.269 1.269 0 0 1-1.252-1.266.854.854 0 1 0-1.707 0 2.979 2.979 0 0 0 2.121 2.849v.534a.854.854 0 0 0 1.708 0v-.534a2.973 2.973 0 0 0-.854-5.824 1.268 1.268 0 1 1 0-2.535z"/></g><g><path fill="#fff" d="M24.074 47.057h3.247a.854.854 0 1 0 0-1.707h-3.247a.854.854 0 0 0 0 1.707z"/></g><g><path fill="#fff" d="M14.714 45.35a.854.854 0 0 0 0 1.707h6.331a.854.854 0 1 0 0-1.707z"/></g><g><path fill="#fff" d="M47.983 19.22h-8.858V6.141a4.432 4.432 0 0 1 4.429-4.409 4.432 4.432 0 0 1 4.43 4.41zM43.85.007V0H6.994A6.932 6.932 0 0 0 .07 6.924v49.133a.854.854 0 0 0 1.387.667l4.136-3.308 4.136 3.308c.312.25.755.25 1.067 0l4.135-3.308 4.135 3.308c.313.25.755.25 1.067 0l4.136-3.308 4.135 3.308c.311.25.755.25 1.067 0l1.475-1.18-1.067-1.333-.942.753-4.136-3.309a.854.854 0 0 0-1.067 0L19.6 54.964l-4.135-3.309a.854.854 0 0 0-1.067 0l-4.135 3.309-4.136-3.309a.854.854 0 0 0-1.067 0l-3.282 2.626V6.924a5.223 5.223 0 0 1 5.217-5.217h32.323a6.121 6.121 0 0 0-1.9 4.434v26.334h1.708V20.927h9.722a.854.854 0 0 0 .854-.853V6.14A6.149 6.149 0 0 0 43.849.007z"/></g></g><g><path fill="#3d4e74" d="M53.676 60.396v4.268a.854.854 0 0 1-.854.853h-4.268a.854.854 0 0 1-.854-.853v-4.268c0-.472.383-.854.854-.854h4.268c.472 0 .854.382.854.854zm-1.707.853h-2.561v2.561h2.56zm-6.083-.853v4.268a.854.854 0 0 1-.853.853h-4.269a.854.854 0 0 1-.853-.853v-4.268c0-.472.382-.854.853-.854h4.269c.47 0 .853.382.853.854zm-1.707.853h-2.561v2.561h2.561zm-5.442-.853v4.268a.854.854 0 0 1-.854.853h-4.268a.854.854 0 0 1-.854-.853v-4.268c0-.472.383-.854.854-.854h4.268c.471 0 .854.382.854.854zm-1.707.853h-2.561v2.561h2.56zm16.646-8.323v4.268a.854.854 0 0 1-.854.854h-4.268a.854.854 0 0 1-.854-.854v-4.268c0-.471.383-.854.854-.854h4.268c.472 0 .854.383.854.854zm-1.707.854h-2.561v2.56h2.56zm-6.083-.854v4.268a.854.854 0 0 1-.853.854h-4.269a.854.854 0 0 1-.853-.854v-4.268c0-.471.382-.854.853-.854h4.269c.47 0 .853.383.853.854zm-1.707.854h-2.561v2.56h2.561zm-5.442-.854v4.268a.854.854 0 0 1-.854.854h-4.268a.854.854 0 0 1-.854-.854v-4.268c0-.471.383-.854.854-.854h4.268c.471 0 .854.383.854.854zm-1.707.854h-2.561v2.56h2.56zm16.646-8.324v4.269a.854.854 0 0 1-.854.853h-4.268a.854.854 0 0 1-.854-.853v-4.269c0-.47.383-.853.854-.853h4.268c.472 0 .854.382.854.853zm-1.707.854h-2.561v2.561h2.56zm-6.083-.854v4.269a.854.854 0 0 1-.853.853h-4.269a.854.854 0 0 1-.853-.853v-4.269c0-.47.382-.853.853-.853h4.269c.47 0 .853.382.853.853zm-1.707.854h-2.561v2.561h2.561zm-5.442-.854v4.269a.854.854 0 0 1-.854.853h-4.268a.854.854 0 0 1-.854-.853v-4.269c0-.47.383-.853.854-.853h4.268c.471 0 .854.382.854.853zm-1.707.854h-2.561v2.561h2.56zm16.646-10.635v4.98a.854.854 0 0 1-.854.853H33.615a.854.854 0 0 1-.854-.853v-4.98c0-.471.383-.854.854-.854h19.207c.472 0 .854.383.854.854zm-1.707.854h-17.5V39.8h17.5zm4.908-2.633v33.827a2.28 2.28 0 0 1-2.276 2.276H31.836a2.28 2.28 0 0 1-2.276-2.276V33.896a2.28 2.28 0 0 1 2.276-2.276h22.765a2.28 2.28 0 0 1 2.276 2.276zm-1.707 0a.569.569 0 0 0-.57-.569H31.837a.569.569 0 0 0-.569.57v33.826c0 .314.255.569.57.569H54.6c.314 0 .569-.255.569-.57z"/></g></g></g></svg>