<svg xmlns="http://www.w3.org/2000/svg" width="18" height="13" viewBox="0 0 18 13"><g><g><g><path fill="#f4f8ff" d="M0 10.72c0 .292.236.528.527.528h1.646v.734a.527.527 0 0 0 1.055 0v-.734h11.544v.734a.527.527 0 0 0 1.055 0v-.734h1.646A.527.527 0 0 0 18 10.72V9.49H0z"/></g><g><path fill="#f4f8ff" d="M18 6.918a1.57 1.57 0 0 0-1.568-1.568H1.568A1.57 1.57 0 0 0 0 6.918v1.519h18z"/></g><g><path fill="#f4f8ff" d="M3.92 2.11c0-.29.236-.527.527-.527h3.26c.292 0 .528.237.528.528v2.186h1.526V2.111c0-.291.236-.528.528-.528h3.26c.291 0 .528.237.528.528v2.186h2.58V2.02c0-1.114-.907-2.02-2.02-2.02H3.36C2.246 0 1.34.906 1.34 2.02v2.277h2.58z"/></g><g><path fill="#f4f8ff" d="M10.82 2.64h2.206v1.659H10.82z"/></g><g><path fill="#f4f8ff" d="M4.98 2.64h2.206v1.659H4.98z"/></g></g></g></svg>