<svg xmlns="http://www.w3.org/2000/svg" width="16" height="16" viewBox="0 0 16 16"><g><g><g><path fill="#f4f8ff" d="M7.094 1.91C3.216 1.91 0 5.064 0 8.941s3.216 7.063 7.094 7.063c.687 0 1.367-.1 2.02-.295a.468.468 0 0 0 .315-.584L7.562 8.873V2.379c0-.26-.21-.469-.468-.469z"/></g><g><path fill="#f4f8ff" d="M14.962 8.47H8.97a.47.47 0 0 0-.45.603l1.723 5.774a.469.469 0 0 0 .584.314c2.711-.812 4.605-3.39 4.605-6.222 0-.26-.21-.469-.469-.469z"/></g><g><path fill="#f4f8ff" d="M8.5 6.866l5.091-5.09a7.06 7.06 0 0 0-1.14-.816L8.5 4.91z"/></g><g><path fill="#f4f8ff" d="M14.251 2.44L9.16 7.531h1.956l3.95-3.95a7.058 7.058 0 0 0-.815-1.141z"/></g><g><path fill="#f4f8ff" d="M12.44 7.526h3.087c.26 0 .469-.21.469-.468 0-.915-.18-1.786-.5-2.588z"/></g><g><path fill="#f4f8ff" d="M8.5.469v3.118L11.556.531C10.754.212 9.883 0 8.97 0 8.709 0 8.5.21 8.5.469z"/></g></g></g></svg>