<svg xmlns="http://www.w3.org/2000/svg" width="30" height="30" viewBox="0 0 30 30"><g><g opacity=".25" transform="rotate(-270 15 15)"><g opacity=".25"><path fill="#4777e0" d="M14.925 28.04c-7.23 0-13.116-5.885-13.116-13.115S7.694 1.809 14.925 1.809c7.23 0 13.115 5.885 13.115 13.116 0 7.23-5.885 13.115-13.115 13.115zM15 0C6.716 0 0 6.716 0 15c0 8.284 6.716 15 15 15 8.284 0 15-6.716 15-15 0-8.284-6.716-15-15-15z"/></g><g opacity=".25"><path fill="#4777e0" d="M11.31 10.072l5.444 4.705-5.444 4.707v4.942l11.156-9.649L11.31 5.13z"/></g></g></g></svg>