<svg xmlns="http://www.w3.org/2000/svg" width="11" height="16" viewBox="0 0 11 16"><g><g><path fill="#f4f8ff" d="M5.495 8.008A2.503 2.503 0 0 1 3.007 5.72a.364.364 0 0 1 .4.09 1.255 1.255 0 0 0 1.822 0 .365.365 0 0 1 .532 0 1.254 1.254 0 0 0 1.822 0 .364.364 0 0 1 .4-.09 2.503 2.503 0 0 1-2.488 2.287zm0-5.009c1.135 0 2.096.764 2.398 1.806a1.257 1.257 0 0 0-.955.392.365.365 0 0 1-.532 0 1.255 1.255 0 0 0-1.822 0 .365.365 0 0 1-.532 0 1.257 1.257 0 0 0-.955-.392A2.502 2.502 0 0 1 5.495 3zM5.5 0A5.508 5.508 0 0 0 0 5.504c0 2.559 1.079 4.934 2.62 6.936 1.284 1.67 2.556 2.65 2.61 2.69.16.122.38.122.54 0 .054-.04 1.326-1.02 2.61-2.69C9.922 10.437 11 8.062 11 5.504A5.508 5.508 0 0 0 5.5 0z"/></g></g></svg>