<svg xmlns="http://www.w3.org/2000/svg" width="16" height="11" viewBox="0 0 16 11"><g><g><g><path fill="#f4f8ff" d="M2.4 4.04l6.864 3.2H14.4l-6.864-3.2z"/></g><g><path fill="#f4f8ff" d="M16 2.822V1.258a.409.409 0 0 0-.4-.418h-.777v1.083c0 .265-.194.493-.447.506a.481.481 0 0 1-.494-.492V.84h-1.181v.529c0 .265-.195.493-.448.506a.48.48 0 0 1-.493-.493V.84h-1.182v1.083c0 .265-.194.493-.447.506a.48.48 0 0 1-.494-.492V.84H8.456v.529c0 .265-.195.493-.448.506a.48.48 0 0 1-.493-.493V.84H6.333v1.083c0 .265-.194.493-.447.506a.48.48 0 0 1-.494-.492V.84H4.211v.529c0 .265-.195.493-.448.506a.48.48 0 0 1-.493-.493V.84H2.088v1.083c0 .265-.194.493-.448.506a.48.48 0 0 1-.493-.492V.84H.4A.41.41 0 0 0 0 1.258v1.564c0 .23.179.418.4.418h15.2c.221 0 .4-.187.4-.418z"/></g><g><path fill="#f4f8ff" d="M16 10.022V8.458a.409.409 0 0 0-.4-.418h-.777v1.083c0 .265-.194.493-.447.506a.48.48 0 0 1-.494-.492V8.04h-1.181v.528c0 .266-.195.494-.448.507a.48.48 0 0 1-.493-.493V8.04h-1.182v1.083c0 .265-.194.493-.447.506a.48.48 0 0 1-.494-.492V8.04H8.456v.528c0 .266-.195.494-.448.507a.48.48 0 0 1-.493-.493V8.04H6.333v1.083c0 .265-.194.493-.447.506a.48.48 0 0 1-.494-.492V8.04H4.211v.528c0 .266-.195.494-.448.507a.48.48 0 0 1-.493-.493V8.04H2.088v1.083c0 .265-.194.493-.448.506a.48.48 0 0 1-.493-.492V8.04H.4c-.22 0-.399.187-.399.418v1.564c0 .23.179.418.4.418h15.2c.221 0 .4-.187.4-.418z"/></g></g></g></svg>