<svg xmlns="http://www.w3.org/2000/svg" width="70" height="67" viewBox="0 0 70 67"><g><g><g><g><path fill="#fff" d="M34.83 10.44c-12.274 0-22.26 9.986-22.26 22.26a.886.886 0 1 0 1.772 0c0-11.297 9.191-20.488 20.488-20.488 11.297 0 20.489 9.191 20.489 20.488a.886.886 0 1 0 1.772 0c0-12.274-9.986-22.26-22.26-22.26z"/></g><g><path fill="#fff" d="M34.11 2.866V7.16a.886.886 0 1 0 1.772 0V2.866a.886.886 0 1 0-1.772 0z"/></g><g><path fill="#fff" d="M57.312 11.44l-3.252 3.252a.886.886 0 1 0 1.253 1.253l3.252-3.252a.886.886 0 0 0-1.253-1.254z"/></g><g><path fill="#fff" d="M15.309 16.204a.886.886 0 0 0 .626-1.513l-3.252-3.252a.886.886 0 0 0-1.253 1.254l3.252 3.252c.166.166.392.26.627.26z"/></g><g><path fill="#fff" d="M18.782.233a.886.886 0 0 0-.429 1.178l4.073 8.735a.886.886 0 0 0 1.606-.75L19.96.662a.886.886 0 0 0-1.178-.429z"/></g><g><path fill="#fff" d="M10.136 22.436L1.4 18.363a.886.886 0 1 0-.749 1.607l8.735 4.073a.886.886 0 1 0 .749-1.607z"/></g><g><path fill="#fff" d="M68.593 18.364l-8.735 4.072a.886.886 0 1 0 .749 1.606l8.735-4.073a.886.886 0 0 0-.75-1.606z"/></g><g><path fill="#3d4e74" d="M58.273 50.165A11.614 11.614 0 0 1 45.63 58.41a11.51 11.51 0 0 1-5.702-2.415c3.62-6.07 8.356-10.98 12.317-14.453a78.99 78.99 0 0 1 10.915-8.016zM31.63 56.35a13.501 13.501 0 0 0 3.02-4.628 13.506 13.506 0 0 0 3.019 4.628 44.131 44.131 0 0 0-3.02 6.65 44.108 44.108 0 0 0-3.019-6.65zm-8.75 2.144a11.614 11.614 0 0 1-11.853-8.323L6.138 33.524a78.91 78.91 0 0 1 10.883 7.993c3.973 3.48 8.721 8.401 12.35 14.487a11.51 11.51 0 0 1-6.491 2.49zm10.883-12.319c-.025.465-.025.932 0 1.397a11.623 11.623 0 0 1-3.058 7.182 52.851 52.851 0 0 0-2.45-3.685c-2.747-3.781-6.134-7.445-10.067-10.888a81.171 81.171 0 0 0-9.767-7.33l15.64 2.58a11.613 11.613 0 0 1 5.576 2.563 11.671 11.671 0 0 1 4.126 8.181zm11.474-10.744l15.64-2.58a81.172 81.172 0 0 0-9.766 7.329c-3.933 3.444-7.32 7.107-10.066 10.888a52.494 52.494 0 0 0-2.452 3.686 11.623 11.623 0 0 1-3.057-7.182c.024-.466.024-.932 0-1.398a11.67 11.67 0 0 1 4.126-8.18 11.612 11.612 0 0 1 5.575-2.563zm19.352-4.989l-19.64 3.241a13.364 13.364 0 0 0-10.3 8.377 13.363 13.363 0 0 0-10.299-8.377L4.71 30.442a.886.886 0 0 0-.994 1.124l5.61 19.098a13.386 13.386 0 0 0 13.662 9.59l-.054-.885.054.884a13.27 13.27 0 0 0 7.272-2.703 40.678 40.678 0 0 1 3.487 8.46c0 .489.396.885.886.885l.017-.001.018.001c.49 0 .886-.396.886-.886a40.678 40.678 0 0 1 3.487-8.458 13.27 13.27 0 0 0 7.271 2.702 13.386 13.386 0 0 0 13.661-9.589l5.611-19.098a.886.886 0 0 0-.994-1.124z"/></g><g><path fill="#fff" d="M50.036.658l-4.073 8.735a.886.886 0 1 0 1.606.749l4.074-8.735a.886.886 0 1 0-1.606-.749z"/></g></g></g></g></svg>