<svg xmlns="http://www.w3.org/2000/svg" width="46" height="70" viewBox="0 0 46 70"><g><g><g><g><path fill="#fff" d="M41.22 0H5.815A3.227 3.227 0 0 0 2.57 3.203v44.555h1.673V3.203a1.552 1.552 0 0 1 1.57-1.53h35.408c.857-.01 1.56.678 1.57 1.535l.244 46.553 1.673-.009-.244-46.549A3.227 3.227 0 0 0 41.221 0z"/></g><g><path fill="#fff" d="M7.387 6.913H21.83a.837.837 0 1 0 0-1.673H7.387a.837.837 0 1 0 0 1.673z"/></g><g><path fill="#fff" d="M5.9 11.397c0 .462.375.836.837.836H21.83a.837.837 0 0 0 0-1.673H6.737a.837.837 0 0 0-.837.837z"/></g><g><path fill="#fff" d="M40.435 15.87H6.737a.837.837 0 1 0 0 1.673h33.698a.837.837 0 1 0 0-1.673z"/></g><g><path fill="#fff" d="M40.435 21.19H6.737a.837.837 0 1 0 0 1.673h33.698a.837.837 0 0 0 0-1.673z"/></g><g><path fill="#fff" d="M9.166 30.709c-.083-1.006.102-1.933.462-2.31.296-.263.646-.397 1.002-.382.104 0 .207.01.31.033.293.064.416.196.436.237.088.18-.182 1.155-.802 1.799-.408.4-.9.618-1.408.623zm3.626-3.62a2.241 2.241 0 0 0-1.57-1.217 2.863 2.863 0 0 0-2.63.795c-.726.758-1.129 2.07-1.12 3.593l-.016-.009c-.274-.155-.591-.105-.83.13-.24.237-.365.624-.33 1.015.035.392.226.728.501.884.337.191.687.342 1.045.45.371 1.202.999 2.155 1.78 2.643.492.296 1.029.445 1.57.437.78.005 1.546-.276 2.211-.812a5.43 5.43 0 0 0 1.212-1.58c.055-.097.121-.213.18-.307.226.266.476.495.744.682.69.48 1.457.738 2.238.753.939.021 1.863-.3 2.673-.927.26-.197.422-.563.421-.96 0-.396-.162-.762-.423-.958a.666.666 0 0 0-.84.01c-.543.424-1.164.641-1.794.629a2.673 2.673 0 0 1-1.484-.492 2.384 2.384 0 0 1-.491-.465c-.262-.361-.618-.575-.997-.599-.805-.03-1.244.744-1.565 1.309a3.631 3.631 0 0 1-.766 1.038c-.618.514-1.573.623-2.173.248a1.786 1.786 0 0 1-.525-.546c.655-.13 1.274-.478 1.8-1.01.507-.532.915-1.21 1.191-1.983.359-1.024.354-2.001-.012-2.75z"/></g><g><path fill="#fff" d="M40.435 29.34H27.877a.837.837 0 1 0 0 1.673h12.558a.837.837 0 0 0 0-1.673z"/></g></g><g><path fill="#3d4e74" d="M19.508 67.813a1.25 1.25 0 0 1-1.732.282 1.232 1.232 0 0 1-.281-1.727l.858-1.18a1.25 1.25 0 0 1 1.73-.281 1.233 1.233 0 0 1 .282 1.729zm-5.11-2.13a1.235 1.235 0 0 1-.28-1.73l1.562-2.15a1.249 1.249 0 0 1 1.732-.281 1.233 1.233 0 0 1 .28 1.729l-1.037 1.427-.513.706-.013.019a1.248 1.248 0 0 1-1.73.28zm-3.38-2.414a1.232 1.232 0 0 1-.28-1.726l2.277-3.126a1.253 1.253 0 0 1 1.733-.281 1.234 1.234 0 0 1 .281 1.73l-.717.985-1.543 2.117-.014.018a1.255 1.255 0 0 1-1.736.283zM7.14 60.06a1.238 1.238 0 0 1 .22-.925l3.134-4.317a1.248 1.248 0 0 1 1.731-.282 1.235 1.235 0 0 1 .281 1.732l-.85 1.17-2.271 3.13-.014.018a1.247 1.247 0 0 1-1.73.282 1.236 1.236 0 0 1-.5-.808zm.489-6.951l6.087-11.487a6.15 6.15 0 0 1 2.353-.185 5.166 5.166 0 0 0-.263.53l-.962 2.323a26.644 26.644 0 0 0-.677 1.82l-.96 2.903a.837.837 0 0 0 .457 1.028l.207.091a5.01 5.01 0 0 0 4.805-.367 4.854 4.854 0 0 0 2.19-3.735c.046-.216.339-1.428 1.144-1.522l1.344.376c.498.139.954.402 1.324.764l8.586 8.412.042.038 4.51 3.86a1.347 1.347 0 0 1 .142 1.914l-.038.043a1.468 1.468 0 0 1-2.054.156l-1.22-1.045-.006-.005-3.233-2.768a.837.837 0 1 0-1.088 1.27l.017.015.028.023 3.194 2.735a1.412 1.412 0 0 1 .143 2.003c-.527.6-1.438.665-2.046.147l-3.234-2.768a.837.837 0 0 0-1.38.62v.003a.834.834 0 0 0 .292.648l2.231 1.91a1.413 1.413 0 0 1 .149 2.007c-.527.6-1.439.666-2.047.147l-1.002-.858h-.001l-1.227-1.05a.837.837 0 0 0-1.088 1.27l1.067.913.16.137a1.413 1.413 0 0 1 .148 2.007 1.461 1.461 0 0 1-2.07.127l-1.426-1.128a2.897 2.897 0 0 0-2.666-3.416 2.897 2.897 0 0 0-2.673-3.386 2.898 2.898 0 0 0-2.56-3.376 2.914 2.914 0 0 0-5.186-2.42l-.239.329zM5.023 54.45a.159.159 0 0 1-.098.078.167.167 0 0 1-.132-.014L1.777 52.83a.15.15 0 0 1-.063-.202l8.45-16.034a.158.158 0 0 1 .1-.08.166.166 0 0 1 .134.018l2.998 1.808a.15.15 0 0 1 .058.2zm14.481-13.783l3.146-.987a3.511 3.511 0 0 1 1.997-.032l3.26.909c1.59.443 2.709.481 4.277.148a.83.83 0 0 0 .151-.047l.246-.105 6.064 12.745a4.959 4.959 0 0 1-1.777 1.654l-2.464-2.107-8.562-8.393a4.757 4.757 0 0 0-2.043-1.18l-1.475-.413a.802.802 0 0 0-.228-.03c-.998.004-1.85.56-2.397 1.565a4.87 4.87 0 0 0-.491 1.384.82.82 0 0 0-.01.083 3.188 3.188 0 0 1-1.446 2.507 3.356 3.356 0 0 1-2.705.41l.708-2.144c.189-.574.402-1.147.633-1.705l.958-2.315a3.465 3.465 0 0 1 2.158-1.947zm13.531-3.178a.155.155 0 0 1 .091-.09l3.262-1.274a.166.166 0 0 1 .21.08l7.691 16.273c.018.036.02.078.005.115a.155.155 0 0 1-.086.089l-3.174 1.363a.167.167 0 0 1-.216-.077l-.4-.844a.84.84 0 0 0-.15-.315L33.04 37.606a.144.144 0 0 1-.004-.118zM21.467 67.964l1.133.897a3.14 3.14 0 0 0 4.382-.33 3.068 3.068 0 0 0 .736-1.63 3.132 3.132 0 0 0 3.254-.937 3.068 3.068 0 0 0 .735-1.63 3.131 3.131 0 0 0 3.254-.937c.375-.43.623-.956.716-1.52a3.145 3.145 0 0 0 3.504-.863l.038-.043a3.02 3.02 0 0 0-.317-4.286l-.689-.59c.47-.318.898-.695 1.272-1.122a1.83 1.83 0 0 0 2.217.61l3.177-1.364a1.824 1.824 0 0 0 .934-2.457l-7.698-16.273a1.844 1.844 0 0 0-2.333-.923l-3.264 1.275a1.825 1.825 0 0 0-.989 2.483l.34.717-.102.043c-1.246.256-2.116.22-3.405-.14l-3.261-.908a5.182 5.182 0 0 0-2.948.047l-3.147.987a5.16 5.16 0 0 0-1.724.928 6.715 6.715 0 0 0-2.578-.244l.229-.432a1.825 1.825 0 0 0-.673-2.416l-2.998-1.808a1.841 1.841 0 0 0-2.578.715L.234 51.847A1.814 1.814 0 0 0 .96 54.29l3.016 1.685a1.83 1.83 0 0 0 1.421.158 1.82 1.82 0 0 0 1.103-.9l.326-.616 1.088.899-1.91 2.628a2.906 2.906 0 0 0 2.86 4.571v.017c.123.765.548 1.45 1.18 1.898a2.9 2.9 0 0 0 2.199.497 2.905 2.905 0 0 0 3.378 2.414l.002.016a2.905 2.905 0 0 0 2.87 2.44 2.922 2.922 0 0 0 2.368-1.2z"/></g></g></g></svg>