<svg xmlns="http://www.w3.org/2000/svg" width="70" height="70" viewBox="0 0 70 70"><g><g><g><path fill="#3d4e74" d="M26.646 50.23a.854.854 0 0 0-.853.854v16.991h-5.42v-5.311a.854.854 0 0 0-.853-.854h-7.114a.854.854 0 0 0-.854.854v5.311h-5.42V51.084a.854.854 0 0 0-.853-.854H3.477l12.486-9.09 12.486 9.09zm-7.98 17.845H13.26v-4.457h5.406zm12.908-17.681l-3.858-2.81V43.18a.854.854 0 0 0-1.708 0v3.162l-9.543-6.949a.854.854 0 0 0-1.005 0l-15.109 11a.854.854 0 0 0 .503 1.545h3.571v16.991c0 .472.382.854.854.854h21.367a.854.854 0 0 0 .854-.854V51.938h3.571a.854.854 0 0 0 .503-1.544z"/></g><g><path fill="#3d4e74" d="M64.717 50.23a.854.854 0 0 0-.854.854v16.991h-5.42v-5.311a.854.854 0 0 0-.853-.854h-7.114a.854.854 0 0 0-.853.854v5.311h-5.42V51.084a.854.854 0 0 0-.854-.854h-1.802l12.486-9.09 12.485 9.09zm-7.981 17.845h-5.407v-4.457h5.407zm9.05-20.49V43.18a.854.854 0 1 0-1.708 0v3.162l-9.543-6.949a.854.854 0 0 0-1.005 0l-15.109 11a.853.853 0 0 0 .502 1.545h3.572v16.991c0 .472.382.854.854.854h21.368a.853.853 0 0 0 .853-.854V51.938h3.572a.855.855 0 0 0 .502-1.544z"/></g><g><g><path fill="#4977e0" d="M42.73 10.019a.853.853 0 1 1 1.706 0v2.674a.854.854 0 0 1-1.707 0zm0-3.403V4.512a.854.854 0 1 1 1.706 0v2.104a.854.854 0 0 1-1.707 0zM26.705 9.598v2.71a.854.854 0 1 1-1.708 0v-2.71a.853.853 0 1 1 1.708 0zm0-3.419a.854.854 0 0 1-1.708 0V4.512a.854.854 0 1 1 1.708 0zm4.432.137v3.632a.853.853 0 1 1-1.707 0V6.316a.854.854 0 0 1 1.707 0zm0-3.344a.854.854 0 1 1-1.707 0v-.289a.854.854 0 1 1 1.707 0zm8.866 3.984v2.992a.854.854 0 1 1-1.708 0V6.956a.854.854 0 0 1 1.708 0zm0-3.373a.854.854 0 0 1-1.708 0v-.9a.854.854 0 1 1 1.708 0zM35.57 9.001v.033a.854.854 0 0 1-1.707 0v-.033a.854.854 0 0 1 1.707 0zm0-3.362a.854.854 0 0 1-1.707 0V.854a.854.854 0 0 1 1.707 0zm9.13 30.628c-.015.018-.027.038-.044.055-.018.017-.038.03-.056.046-5.316 5.273-13.89 5.273-19.205 0-.018-.016-.039-.029-.056-.046-.016-.017-.03-.037-.045-.055-5.273-5.316-5.273-13.89 0-19.205.016-.018.028-.039.045-.056.018-.017.038-.03.056-.045 5.315-5.274 13.89-5.274 19.205 0 .018.015.039.028.056.045.016.018.029.038.045.056 5.273 5.315 5.273 13.89 0 19.205zm1.772-8.75a.854.854 0 1 1 0-1.707h.443a11.892 11.892 0 0 0-2.891-6.966l-.31.31a.853.853 0 1 1-1.207-1.207l.31-.31a11.897 11.897 0 0 0-6.966-2.89v.443a.854.854 0 0 1-1.707 0v-.443a11.896 11.896 0 0 0-6.966 2.891l.31.31a.854.854 0 1 1-1.208 1.207l-.309-.31a11.895 11.895 0 0 0-2.89 6.966h.442a.854.854 0 0 1 0 1.707h-.443a11.892 11.892 0 0 0 2.891 6.966l.31-.31a.854.854 0 1 1 1.206 1.208l-.309.31a11.894 11.894 0 0 0 6.966 2.89v-.442a.854.854 0 1 1 1.707 0v.442a11.902 11.902 0 0 0 6.966-2.891l-.31-.31a.854.854 0 0 1 1.208-1.206l.309.309a11.892 11.892 0 0 0 2.89-6.966h-.442zm-11.475-4.204a1.225 1.225 0 0 0 0 2.45 2.933 2.933 0 0 1 .854 5.737v.511a.854.854 0 1 1-1.707 0v-.51a2.936 2.936 0 0 1-2.078-2.805.854.854 0 0 1 1.707 0c0 .67.54 1.215 1.21 1.224H35.012a1.225 1.225 0 1 0-.015-2.45 2.932 2.932 0 0 1-.853-5.736v-.416a.854.854 0 1 1 1.707 0v.416a2.936 2.936 0 0 1 2.079 2.805.854.854 0 0 1-1.708 0c0-.676-.548-1.224-1.225-1.225zm0-6.648c5.52.006 9.994 4.48 10 9.999 0 5.523-4.476 10-10 10-5.522 0-10-4.477-10-10s4.478-10 10-10zm0 18.292a8.302 8.302 0 0 0 8.293-8.293 8.292 8.292 0 0 0-8.293-8.292 8.292 8.292 0 0 0-8.292 8.293 8.292 8.292 0 0 0 8.292 8.292z"/></g></g></g></g></svg>