<svg xmlns="http://www.w3.org/2000/svg" width="58" height="70" viewBox="0 0 58 70"><g><g><g><path fill="#3d4e74" d="M10.807 62.038l.345-3.776 6.258-2.14zm-2.813-8.167l8.856.625-6.257 2.141zm-2.07-1.869a.863.863 0 0 0-.84.487.856.856 0 0 0 .149.957l4.218 4.49-.56 6.128a.858.858 0 0 0 .472.845c.317.158.7.107.963-.13L21.7 54.59a.857.857 0 0 0 .255-.925v-.008a.864.864 0 0 0-.773-.574z"/></g><g><path fill="#3d4e74" d="M24.67 60.062a11.747 11.747 0 0 1-21.637 1.85 11.765 11.765 0 0 1 1.462-12.99 11.744 11.744 0 0 1 12.554-3.61c6.17 1.973 9.578 8.571 7.62 14.75zM.64 52.406c-2.26 7.102 1.662 14.693 8.759 16.954 7.097 2.262 14.682-1.663 16.942-8.766 1.11-3.41.809-7.124-.837-10.31a13.399 13.399 0 0 0-7.923-6.644C10.484 41.378 2.9 45.303.64 52.406z"/></g><g><path fill="#3d4e74" d="M51 24.792c0-.437-.448-.792-1-.792s-1 .355-1 .792v2.416c0 .437.448.792 1 .792s1-.355 1-.792z"/></g><g><path fill="#3d4e74" d="M46.777 31.486c-.316.033-.588.21-.71.463a.675.675 0 0 0 .12.76.957.957 0 0 0 .829.282c1.303-.156 2.413-.895 2.917-1.941.186-.388-.028-.832-.479-.992-.45-.16-.966.024-1.152.412-.263.548-.843.934-1.525 1.016z"/></g><g><path fill="#3d4e74" d="M48.48 46.167a.965.965 0 0 0-.934-.084.91.91 0 0 0-.542.74.896.896 0 0 0 .392.825 6.674 6.674 0 0 1 1.87 1.925.957.957 0 0 0 1.288.292.89.89 0 0 0 .309-1.244 8.505 8.505 0 0 0-2.382-2.454z"/></g><g><path fill="#3d4e74" d="M47.58 57.225a6.076 6.076 0 0 1-2.045 1.245.802.802 0 0 0-.525.616.77.77 0 0 0 .301.739.874.874 0 0 0 .826.122 7.757 7.757 0 0 0 2.61-1.588.762.762 0 0 0 .016-1.12.87.87 0 0 0-1.183-.014z"/></g><g><path fill="#3d4e74" d="M51.092 51.003c-.453.04-.791.495-.756 1.016a7.794 7.794 0 0 1-.293 2.732c-.094.321-.032.675.162.928.195.254.492.37.78.302.288-.066.524-.305.617-.625a9.94 9.94 0 0 0 .375-3.484c-.037-.52-.432-.909-.885-.87z"/></g><g><path fill="#3d4e74" d="M31.43 34.306a6.495 6.495 0 0 0-1.41 2.722.76.76 0 0 0 .268.764c.233.192.56.257.86.17a.834.834 0 0 0 .591-.594 4.94 4.94 0 0 1 1.072-2.07.745.745 0 0 0 .126-.794.87.87 0 0 0-.691-.496.923.923 0 0 0-.817.298z"/></g><g><path fill="#3d4e74" d="M37.52 32a9.257 9.257 0 0 0-2.914.463c-.317.103-.544.34-.595.623-.051.282.082.565.349.742.266.177.625.221.941.115a7.048 7.048 0 0 1 2.218-.352h.533c.524 0 .948-.356.948-.795 0-.44-.424-.795-.948-.795z"/></g><g><path fill="#3d4e74" d="M40.938 32c-.518 0-.938.448-.938 1s.42 1 .938 1h3.124c.518 0 .938-.448.938-1s-.42-1-.938-1z"/></g><g><path fill="#3d4e74" d="M45.187 44.088A8.55 8.55 0 0 0 43.962 44h-2.025a.949.949 0 0 0-.937.96c0 .53.42.96.937.96h2.025c.322 0 .643.023.962.07a.926.926 0 0 0 .875-.356.98.98 0 0 0 .132-.955.94.94 0 0 0-.744-.59z"/></g><g><path fill="#3d4e74" d="M32.77 42.599a5.31 5.31 0 0 1-1.189-2.02.815.815 0 0 0-.6-.56.8.8 0 0 0-.775.256.837.837 0 0 0-.164.813 6.974 6.974 0 0 0 1.562 2.655c.2.215.498.304.78.233a.816.816 0 0 0 .585-.574.837.837 0 0 0-.199-.803z"/></g><g><path fill="#3d4e74" d="M30.063 59h-3.125c-.518 0-.938.448-.938 1s.42 1 .938 1h3.125c.517 0 .937-.448.937-1s-.42-1-.938-1z"/></g><g><path fill="#3d4e74" d="M38.057 44.244h-1.22c-.555 0-1.106-.07-1.639-.21-.5-.133-1.02.139-1.162.606-.142.467.15.952.65 1.084.7.183 1.423.276 2.15.276h1.222c.52 0 .942-.393.942-.878s-.422-.878-.942-.878z"/></g><g><path fill="#3d4e74" d="M43.063 59h-3.126c-.517 0-.937.448-.937 1s.42 1 .938 1h3.124c.518 0 .938-.448.938-1s-.42-1-.938-1z"/></g><g><path fill="#4977e0" d="M51.353 14.087a.87.87 0 0 0-.666.668l-.682 3.199-.682-3.199a.87.87 0 0 0-.666-.668A6.249 6.249 0 0 1 43.78 7.31a6.256 6.256 0 0 1 6.225-5.571 6.256 6.256 0 0 1 6.225 5.57 6.249 6.249 0 0 1-4.877 6.778zm-9.27-7.247a7.986 7.986 0 0 0 5.645 8.804l1.42 6.668a.87.87 0 0 0 1.703 0l1.421-6.668a7.986 7.986 0 0 0 5.645-8.804A7.994 7.994 0 0 0 50 0a7.994 7.994 0 0 0-7.917 6.84z"/></g><g><path fill="#3d4e74" d="M37.063 59h-3.126c-.517 0-.937.448-.937 1s.42 1 .938 1h3.124c.518 0 .938-.448.938-1s-.42-1-.938-1z"/></g></g></g></svg>