<svg xmlns="http://www.w3.org/2000/svg" width="87" height="76" viewBox="0 0 87 76"><defs><linearGradient id="u14va" x1="65.45" x2="20.47" y1="16" y2="16" gradientUnits="userSpaceOnUse"><stop offset="0" stop-color="#13d7e3"/><stop offset="1" stop-color="#0ea8ee"/></linearGradient><linearGradient id="u14vb" x1="19.9" x2="73.8" y1="16" y2="16" gradientUnits="userSpaceOnUse"><stop offset="0" stop-color="#13d7e3"/><stop offset="1" stop-color="#0ea8ee"/></linearGradient><linearGradient id="u14vc" x1="65.5" x2="20.17" y1="44" y2="44" gradientUnits="userSpaceOnUse"><stop offset="0" stop-color="#0ea8ee"/><stop offset="1" stop-color="#13d7e3"/></linearGradient></defs><g><g><g><g><g><path fill="#fff" d="M26.7 64v2h-4.942v10h-2.177V66H14.64v-2z"/></g><g><path fill="#fff" d="M34.185 66h1.393l2.526 6.174H31.66zm-1.395-2l-5.23 12h2.353l.872-1.913h8.193L39.85 76h2.354L37.06 64z"/></g><g><path fill="#fff" d="M55.13 64v2h-4.976v10h-2.108V66H43.07v-2z"/></g><g><path fill="#fff" d="M59.863 64v6.043c0 2.468 1.206 4.085 3.877 4.085 2.67 0 3.876-1.617 3.876-4.085V64h2.153v5.957c0 3.915-2.325 6.043-6.03 6.043-3.703 0-6.029-2.213-6.029-6.043V64z"/></g><g><path fill="#fff" d="M83.509 68.993h-5.937c-.786 0-1.484-.701-1.484-1.49 0-.788.698-1.488 1.484-1.488h7.595V64h-7.595c-1.92 0-3.492 1.577-3.492 3.504s1.571 3.503 3.492 3.503h5.937c.785 0 1.484.701 1.484 1.49 0 .788-.699 1.488-1.484 1.488h-8.905V76h8.905C85.429 76 87 74.423 87 72.496s-1.572-3.503-3.492-3.503z"/></g><g><path fill="#fff" d="M9.429 68.993H3.492c-.786 0-1.484-.701-1.484-1.49 0-.788.698-1.488 1.484-1.488h7.595V64H3.492C1.572 64 0 65.577 0 67.504s1.571 3.503 3.492 3.503H9.43c.785 0 1.484.701 1.484 1.49 0 .788-.699 1.488-1.484 1.488H.524V76h8.905c1.92 0 3.492-1.577 3.492-3.504s-1.572-3.503-3.492-3.503z"/></g></g></g><g><g><path fill="url(#u14va)" d="M68.932 18.945H29.57c-1.643 0-2.943-1.286-2.943-2.909 0-1.624 1.3-2.909 2.943-2.909H69V.004H29.57c-8.967-.203-16.36 6.832-16.566 15.694C12.8 24.559 19.987 31.865 28.886 32H69z"/></g><g><path fill="url(#u14vb)" d="M29.59.004c-8.978-.203-16.38 6.832-16.586 15.694C12.8 24.559 19.995 31.865 28.905 32h.686c-5.346 0-10.076-4.194-10.076-9.47 0-5.006 3.701-9.47 9.87-9.47H69V.004z"/></g><g><path fill="url(#u14vc)" d="M15 37h54v14H15z"/></g></g></g></g></svg>