<svg xmlns="http://www.w3.org/2000/svg" width="15" height="16" viewBox="0 0 15 16"><g><g opacity=".73"><g opacity=".73"><path fill="#fff" d="M10.547 12.436c-.186.063-1.875.478-4.018.354 0 0-1.587 1.934-2.102 2.454a.314.314 0 0 1-.226.104c-.083-.021-.103-.125-.103-.27 0-.209.02-2.663.02-2.663-3.11-.873-2.925-4.159-2.905-5.885.041-1.726.35-3.12 1.298-4.076 1.71-1.56 5.234-1.33 5.234-1.33 2.967.02 4.388.914 4.718 1.226 1.071.957 1.628 3.224 1.236 6.53-.391 3.223-2.72 3.431-3.152 3.556zM7.786.021s-4.142-.25-6.16 1.622C.491 2.787.1 4.43.058 6.49c-.04 2.058-.103 5.906 3.585 6.966v1.601s-.02.645.392.77c.515.166.803-.333 1.298-.853.268-.29.639-.707.907-1.04 2.513.208 4.45-.27 4.677-.353.515-.166 3.379-.54 3.853-4.388.494-3.993-.207-6.51-1.505-7.632-.391-.354-1.957-1.518-5.48-1.539z"/></g><g opacity=".73"><path fill="none" stroke="#fff" stroke-linecap="round" stroke-linejoin="round" stroke-miterlimit="20" d="M9.235 6.408c-.041-.79-.433-1.206-1.195-1.248"/></g><g opacity=".73"><path fill="none" stroke="#fff" stroke-linecap="round" stroke-linejoin="round" stroke-miterlimit="20" d="M10.263 6.742c.02-.728-.206-1.352-.639-1.83-.453-.5-1.071-.77-1.854-.832"/></g><g opacity=".73"><path fill="none" stroke="#fff" stroke-linecap="round" stroke-linejoin="round" stroke-miterlimit="20" d="M11.295 7.157c0-1.269-.392-2.267-1.133-2.995C9.42 3.434 8.492 3.06 7.38 3.06"/></g><g opacity=".73"><path fill="#fff" d="M8.078 9.083s.289.02.433-.166l.288-.375c.145-.187.474-.312.825-.125.185.104.515.312.72.479.227.166.68.54.68.54.227.188.269.458.124.75-.144.27-.35.519-.618.748-.206.187-.412.27-.618.312H9.83c-.083 0-.186-.021-.268-.042-.31-.083-.824-.312-1.71-.79a10.615 10.615 0 0 1-1.422-.957 5.403 5.403 0 0 1-.639-.582l-.082-.083a7.736 7.736 0 0 1-.577-.645c-.31-.395-.639-.873-.948-1.435-.474-.873-.7-1.393-.783-1.726a1.062 1.062 0 0 1-.041-.27v-.083c.02-.208.124-.416.31-.624.226-.25.473-.458.74-.624.29-.146.557-.104.743.125 0 0 .37.457.535.686.144.208.35.54.474.728.186.333.062.686-.103.832l-.37.29c-.186.146-.166.437-.166.437s.516 2.06 2.555 2.6z"/></g></g></g></svg>